<mxfile host="Electron" modified="2024-02-08T01:48:29.207Z" agent="Mozilla/5.0 (Macintosh; Intel Mac OS X 10_15_7) AppleWebKit/537.36 (KHTML, like Gecko) draw.io/22.1.21 Chrome/120.0.6099.109 Electron/28.1.0 Safari/537.36" etag="a8FLai2j2AxsPqA1ZTu1" version="22.1.21" type="device">
  <diagram name="Page-1" id="e6PdbGseR7VZRZWQud6H">
    <mxGraphModel dx="2021" dy="1767" grid="1" gridSize="10" guides="1" tooltips="1" connect="1" arrows="1" fold="1" page="1" pageScale="1" pageWidth="827" pageHeight="1169" math="0" shadow="0">
      <root>
        <mxCell id="0" />
        <mxCell id="1" parent="0" />
        <mxCell id="k6b4_02PT93n83dl0_Wz-2" value="" style="rounded=1;whiteSpace=wrap;html=1;fillColor=#d5e8d4;strokeColor=#82b366;" parent="1" vertex="1">
          <mxGeometry x="-230" y="-580" width="1100" height="950" as="geometry" />
        </mxCell>
        <mxCell id="k6b4_02PT93n83dl0_Wz-3" value="desktop" style="sketch=0;outlineConnect=0;gradientColor=none;fontColor=#545B64;strokeColor=none;fillColor=#879196;dashed=0;verticalLabelPosition=bottom;verticalAlign=top;align=center;html=1;fontSize=12;fontStyle=0;aspect=fixed;shape=mxgraph.aws4.illustration_desktop;pointerEvents=1" parent="1" vertex="1">
          <mxGeometry x="-540" y="-156.75" width="100" height="91" as="geometry" />
        </mxCell>
        <mxCell id="k6b4_02PT93n83dl0_Wz-4" value="&lt;font color=&quot;#cc6600&quot;&gt;Frontend&lt;br&gt;SPA&lt;/font&gt;" style="rounded=1;whiteSpace=wrap;html=1;fillColor=#ffe6cc;strokeColor=#d79b00;" parent="1" vertex="1">
          <mxGeometry x="-190" y="-207.12" width="120" height="270" as="geometry" />
        </mxCell>
        <mxCell id="k6b4_02PT93n83dl0_Wz-5" value="&lt;font color=&quot;#cc6600&quot;&gt;Gateway&lt;/font&gt;" style="rounded=1;whiteSpace=wrap;html=1;fillColor=#fff2cc;strokeColor=#d6b656;" parent="1" vertex="1">
          <mxGeometry x="-10" y="-144" width="60" height="143.75" as="geometry" />
        </mxCell>
        <mxCell id="k6b4_02PT93n83dl0_Wz-6" value="&lt;font color=&quot;#cc6600&quot;&gt;Innovatory service&lt;br&gt;Springboot&lt;/font&gt;" style="rounded=1;whiteSpace=wrap;html=1;fillColor=#e1d5e7;strokeColor=#9673a6;" parent="1" vertex="1">
          <mxGeometry x="572.72" y="66.75" width="153.25" height="64.25" as="geometry" />
        </mxCell>
        <mxCell id="k6b4_02PT93n83dl0_Wz-9" value="" style="image;sketch=0;aspect=fixed;html=1;points=[];align=center;fontSize=12;image=img/lib/mscae/Docker.svg;" parent="1" vertex="1">
          <mxGeometry x="700" y="50.8" width="49.03" height="40.2" as="geometry" />
        </mxCell>
        <mxCell id="d20cZ_9NGkUB0knLJlD9-2" value="&lt;font color=&quot;#cc6600&quot;&gt;menu ETL&lt;br&gt;Python&lt;/font&gt;" style="rounded=1;whiteSpace=wrap;html=1;fillColor=#e1d5e7;strokeColor=#9673a6;" parent="1" vertex="1">
          <mxGeometry x="592.72" y="257.25" width="120" height="55" as="geometry" />
        </mxCell>
        <mxCell id="d20cZ_9NGkUB0knLJlD9-3" value="" style="rounded=1;whiteSpace=wrap;html=1;fillColor=#fff2cc;strokeColor=#d6b656;" parent="1" vertex="1">
          <mxGeometry x="110" y="-490" width="140" height="757.5" as="geometry" />
        </mxCell>
        <mxCell id="d20cZ_9NGkUB0knLJlD9-4" value="&lt;font color=&quot;#cc6600&quot;&gt;Menu service&lt;br&gt;Typescript&lt;/font&gt;" style="rounded=1;whiteSpace=wrap;html=1;fillColor=#dae8fc;strokeColor=#6c8ebf;" parent="1" vertex="1">
          <mxGeometry x="130" y="150" width="100" height="90" as="geometry" />
        </mxCell>
        <mxCell id="l4fY2LM750dYpXXW07Bl-1" value="&lt;font color=&quot;#cc6600&quot;&gt;Rewards service&lt;br&gt;Typescript&lt;/font&gt;" style="rounded=1;whiteSpace=wrap;html=1;fillColor=#dae8fc;strokeColor=#6c8ebf;" vertex="1" parent="1">
          <mxGeometry x="130" y="30" width="100" height="90" as="geometry" />
        </mxCell>
        <mxCell id="l4fY2LM750dYpXXW07Bl-2" value="&lt;font color=&quot;#cc6600&quot;&gt;Order service&lt;br&gt;Typescript&lt;/font&gt;" style="rounded=1;whiteSpace=wrap;html=1;fillColor=#dae8fc;strokeColor=#6c8ebf;" vertex="1" parent="1">
          <mxGeometry x="130" y="-219" width="100" height="90" as="geometry" />
        </mxCell>
        <mxCell id="l4fY2LM750dYpXXW07Bl-3" value="&lt;font color=&quot;#cc6600&quot;&gt;Table bookings service&lt;br&gt;Typescript&lt;/font&gt;" style="rounded=1;whiteSpace=wrap;html=1;fillColor=#dae8fc;strokeColor=#6c8ebf;" vertex="1" parent="1">
          <mxGeometry x="130" y="-90" width="100" height="90" as="geometry" />
        </mxCell>
        <mxCell id="l4fY2LM750dYpXXW07Bl-4" value="&lt;font color=&quot;#cc6600&quot;&gt;Location service&lt;br&gt;Typescript&lt;/font&gt;" style="rounded=1;whiteSpace=wrap;html=1;fillColor=#dae8fc;strokeColor=#6c8ebf;" vertex="1" parent="1">
          <mxGeometry x="130" y="-350" width="100" height="90" as="geometry" />
        </mxCell>
        <mxCell id="l4fY2LM750dYpXXW07Bl-5" value="&lt;font color=&quot;#cc6600&quot;&gt;Entertainment service&lt;br&gt;Typescript&lt;/font&gt;" style="rounded=1;whiteSpace=wrap;html=1;fillColor=#dae8fc;strokeColor=#6c8ebf;" vertex="1" parent="1">
          <mxGeometry x="130" y="-470" width="100" height="90" as="geometry" />
        </mxCell>
        <mxCell id="l4fY2LM750dYpXXW07Bl-6" value="&lt;h2&gt;&lt;font color=&quot;#cc6600&quot;&gt;Experience Layer&lt;/font&gt;&lt;/h2&gt;" style="text;html=1;align=center;verticalAlign=middle;resizable=0;points=[];autosize=1;strokeColor=none;fillColor=none;" vertex="1" parent="1">
          <mxGeometry x="95" y="-535" width="170" height="60" as="geometry" />
        </mxCell>
        <mxCell id="l4fY2LM750dYpXXW07Bl-7" value="Menu DB&lt;br&gt;DynamoDB" style="shape=cylinder3;whiteSpace=wrap;html=1;boundedLbl=1;backgroundOutline=1;size=15;" vertex="1" parent="1">
          <mxGeometry x="320.63" y="190" width="91" height="69.5" as="geometry" />
        </mxCell>
        <mxCell id="l4fY2LM750dYpXXW07Bl-8" value="Inventory DB&lt;br&gt;PostgreSQL" style="shape=cylinder3;whiteSpace=wrap;html=1;boundedLbl=1;backgroundOutline=1;size=15;" vertex="1" parent="1">
          <mxGeometry x="603.85" y="151" width="91" height="73.25" as="geometry" />
        </mxCell>
        <mxCell id="l4fY2LM750dYpXXW07Bl-12" value="" style="rounded=1;whiteSpace=wrap;html=1;" vertex="1" parent="1">
          <mxGeometry x="570" y="-410" width="210" height="400" as="geometry" />
        </mxCell>
        <mxCell id="l4fY2LM750dYpXXW07Bl-9" value="Table bookings" style="shape=cylinder3;whiteSpace=wrap;html=1;boundedLbl=1;backgroundOutline=1;size=15;" vertex="1" parent="1">
          <mxGeometry x="610" y="-130" width="110" height="80" as="geometry" />
        </mxCell>
        <mxCell id="l4fY2LM750dYpXXW07Bl-10" value="Order" style="shape=cylinder3;whiteSpace=wrap;html=1;boundedLbl=1;backgroundOutline=1;size=15;" vertex="1" parent="1">
          <mxGeometry x="610" y="-269" width="110" height="80" as="geometry" />
        </mxCell>
        <mxCell id="l4fY2LM750dYpXXW07Bl-11" value="Entertainment" style="shape=cylinder3;whiteSpace=wrap;html=1;boundedLbl=1;backgroundOutline=1;size=15;" vertex="1" parent="1">
          <mxGeometry x="610" y="-380" width="110" height="80" as="geometry" />
        </mxCell>
        <mxCell id="l4fY2LM750dYpXXW07Bl-13" value="" style="sketch=0;outlineConnect=0;fontColor=#232F3E;gradientColor=none;fillColor=#E7157B;strokeColor=none;dashed=0;verticalLabelPosition=bottom;verticalAlign=top;align=center;html=1;fontSize=12;fontStyle=0;aspect=fixed;pointerEvents=1;shape=mxgraph.aws4.parameter_store;" vertex="1" parent="1">
          <mxGeometry x="211.54" y="-370" width="38.46" height="40" as="geometry" />
        </mxCell>
        <mxCell id="l4fY2LM750dYpXXW07Bl-17" value="EOD item quantity&lt;br&gt;Dynamo DB" style="shape=cylinder3;whiteSpace=wrap;html=1;boundedLbl=1;backgroundOutline=1;size=15;" vertex="1" parent="1">
          <mxGeometry x="319" y="91" width="94.25" height="82.25" as="geometry" />
        </mxCell>
        <mxCell id="l4fY2LM750dYpXXW07Bl-18" value="&lt;h2&gt;&lt;font color=&quot;#cc6600&quot;&gt;Caribbean customer facing DB&lt;/font&gt;&lt;/h2&gt;&lt;h2&gt;&lt;font color=&quot;#cc6600&quot;&gt;PostgreSQL/MongoDB&lt;/font&gt;&lt;/h2&gt;" style="text;html=1;align=center;verticalAlign=middle;resizable=0;points=[];autosize=1;strokeColor=none;fillColor=none;" vertex="1" parent="1">
          <mxGeometry x="530" y="-510" width="290" height="100" as="geometry" />
        </mxCell>
        <mxCell id="l4fY2LM750dYpXXW07Bl-20" value="" style="sketch=0;points=[[0,0,0],[0.25,0,0],[0.5,0,0],[0.75,0,0],[1,0,0],[0,1,0],[0.25,1,0],[0.5,1,0],[0.75,1,0],[1,1,0],[0,0.25,0],[0,0.5,0],[0,0.75,0],[1,0.25,0],[1,0.5,0],[1,0.75,0]];outlineConnect=0;fontColor=#232F3E;fillColor=#DD344C;strokeColor=#ffffff;dashed=0;verticalLabelPosition=bottom;verticalAlign=top;align=center;html=1;fontSize=12;fontStyle=0;aspect=fixed;shape=mxgraph.aws4.resourceIcon;resIcon=mxgraph.aws4.cognito;" vertex="1" parent="1">
          <mxGeometry x="-19" y="151" width="78" height="78" as="geometry" />
        </mxCell>
        <mxCell id="l4fY2LM750dYpXXW07Bl-21" value="" style="sketch=0;points=[[0,0,0],[0.25,0,0],[0.5,0,0],[0.75,0,0],[1,0,0],[0,1,0],[0.25,1,0],[0.5,1,0],[0.75,1,0],[1,1,0],[0,0.25,0],[0,0.5,0],[0,0.75,0],[1,0.25,0],[1,0.5,0],[1,0.75,0]];outlineConnect=0;fontColor=#232F3E;fillColor=#C925D1;strokeColor=#ffffff;dashed=0;verticalLabelPosition=bottom;verticalAlign=top;align=center;html=1;fontSize=12;fontStyle=0;aspect=fixed;shape=mxgraph.aws4.resourceIcon;resIcon=mxgraph.aws4.dynamodb;" vertex="1" parent="1">
          <mxGeometry x="-19" y="-533" width="78" height="78" as="geometry" />
        </mxCell>
        <mxCell id="l4fY2LM750dYpXXW07Bl-23" value="" style="sketch=0;points=[[0,0,0],[0.25,0,0],[0.5,0,0],[0.75,0,0],[1,0,0],[0,1,0],[0.25,1,0],[0.5,1,0],[0.75,1,0],[1,1,0],[0,0.25,0],[0,0.5,0],[0,0.75,0],[1,0.25,0],[1,0.5,0],[1,0.75,0]];outlineConnect=0;fontColor=#232F3E;fillColor=#ED7100;strokeColor=#ffffff;dashed=0;verticalLabelPosition=bottom;verticalAlign=top;align=center;html=1;fontSize=12;fontStyle=0;aspect=fixed;shape=mxgraph.aws4.resourceIcon;resIcon=mxgraph.aws4.lambda;" vertex="1" parent="1">
          <mxGeometry x="-19" y="-360" width="78" height="78" as="geometry" />
        </mxCell>
        <mxCell id="l4fY2LM750dYpXXW07Bl-24" value="" style="sketch=0;points=[[0,0,0],[0.25,0,0],[0.5,0,0],[0.75,0,0],[1,0,0],[0,1,0],[0.25,1,0],[0.5,1,0],[0.75,1,0],[1,1,0],[0,0.25,0],[0,0.5,0],[0,0.75,0],[1,0.25,0],[1,0.5,0],[1,0.75,0]];outlineConnect=0;fontColor=#232F3E;fillColor=#C925D1;strokeColor=#ffffff;dashed=0;verticalLabelPosition=bottom;verticalAlign=top;align=center;html=1;fontSize=12;fontStyle=0;aspect=fixed;shape=mxgraph.aws4.resourceIcon;resIcon=mxgraph.aws4.dynamodb;" vertex="1" parent="1">
          <mxGeometry x="399" y="180.5" width="29" height="29" as="geometry" />
        </mxCell>
        <mxCell id="l4fY2LM750dYpXXW07Bl-25" value="" style="sketch=0;points=[[0,0,0],[0.25,0,0],[0.5,0,0],[0.75,0,0],[1,0,0],[0,1,0],[0.25,1,0],[0.5,1,0],[0.75,1,0],[1,1,0],[0,0.25,0],[0,0.5,0],[0,0.75,0],[1,0.25,0],[1,0.5,0],[1,0.75,0]];outlineConnect=0;fontColor=#232F3E;fillColor=#C925D1;strokeColor=#ffffff;dashed=0;verticalLabelPosition=bottom;verticalAlign=top;align=center;html=1;fontSize=12;fontStyle=0;aspect=fixed;shape=mxgraph.aws4.resourceIcon;resIcon=mxgraph.aws4.dynamodb;" vertex="1" parent="1">
          <mxGeometry x="399" y="84.38" width="29" height="29" as="geometry" />
        </mxCell>
        <mxCell id="l4fY2LM750dYpXXW07Bl-26" value="&lt;h3&gt;&lt;font color=&quot;#cc6600&quot;&gt;Policy store&lt;/font&gt;&lt;/h3&gt;" style="text;html=1;align=center;verticalAlign=middle;resizable=0;points=[];autosize=1;strokeColor=none;fillColor=none;" vertex="1" parent="1">
          <mxGeometry x="-30" y="-470" width="100" height="60" as="geometry" />
        </mxCell>
        <mxCell id="l4fY2LM750dYpXXW07Bl-27" value="&lt;h3&gt;&lt;font color=&quot;#cc6600&quot;&gt;Custom Authoriser&lt;/font&gt;&lt;/h3&gt;" style="text;html=1;align=center;verticalAlign=middle;resizable=0;points=[];autosize=1;strokeColor=none;fillColor=none;" vertex="1" parent="1">
          <mxGeometry x="-55" y="-297" width="150" height="60" as="geometry" />
        </mxCell>
        <mxCell id="l4fY2LM750dYpXXW07Bl-28" value="&lt;h3&gt;&lt;font color=&quot;#cc6600&quot;&gt;Amazon cognito&lt;/font&gt;&lt;/h3&gt;" style="text;html=1;align=center;verticalAlign=middle;resizable=0;points=[];autosize=1;strokeColor=none;fillColor=none;" vertex="1" parent="1">
          <mxGeometry x="-45" y="224.25" width="130" height="60" as="geometry" />
        </mxCell>
      </root>
    </mxGraphModel>
  </diagram>
</mxfile>
